<svg width="1.2em" height="1.2em" viewBox="0 0 22 22" fill="none" xmlns="http://www.w3.org/2000/svg">
<g id="ic_play">
<path id="Shape" fill-rule="evenodd" clip-rule="evenodd" d="M11 20C15.9706 20 20 15.9706 20 11C20 6.02944 15.9706 2 11 2C6.02944 2 2 6.02944 2 11C2 15.9706 6.02944 20 11 20ZM11 18.6154C6.79414 18.6154 3.38462 15.2059 3.38462 11C3.38462 6.79414 6.79414 3.38462 11 3.38462C15.2059 3.38462 18.6154 6.79414 18.6154 11C18.6154 15.2059 15.2059 18.6154 11 18.6154ZM10.1694 8.29409C9.50305 7.9324 8.69231 8.4148 8.69231 9.17296V12.827C8.69231 13.5852 9.50305 14.0676 10.1694 13.7059L13.5352 11.8789C14.2324 11.5004 14.2324 10.4996 13.5352 10.1211L10.1694 8.29409Z" fill="currentColor"/>
</g>
</svg>
